<?xml version="1.0" encoding="iso-8859-1"?>
<!-- Generator: Adobe Illustrator 19.0.0, SVG Export Plug-In . SVG Version: 6.00 Build 0)  -->
<svg version="1.1" id="Layer_1" xmlns="http://www.w3.org/2000/svg" xmlns:xlink="http://www.w3.org/1999/xlink" x="0px" y="0px"
	 viewBox="0 0 512.001 512.001" style="enable-background:new 0 0 512.001 512.001;" xml:space="preserve">
<g>
	<g>
		<g>
			<path fill="white" d="M417.693,452.714h-8.475l-14.135-67.14c-4.96-23.558-26.03-40.655-50.104-40.655h-3.433
				c-10.373-36.65-42.504-61.557-78.586-64.429l-41.817-156.067l3.507-0.94c9.486-2.542,15.379-11.756,13.706-21.434l-9.421-54.514
				c-2.736-15.826-12.064-29.867-25.597-38.518c-13.53-8.652-30.19-11.229-45.702-7.073c-15.514,4.157-28.652,14.719-36.043,28.977
				c-7.391,14.258-8.451,31.082-2.907,46.156l19.098,51.922c3.391,9.219,13.101,14.252,22.586,11.71l3.507-0.94l41.809,156.034
				c-17.203,11.819-29.608,29.328-35.25,49.116h-3.414c-24.074,0-45.145,17.097-50.104,40.655l-14.134,67.141h-8.475
				c-10.401,0-18.864,8.463-18.864,18.864v21.559c0,10.401,8.463,18.864,18.864,18.864h237.149c4.465,0,8.085-3.62,8.085-8.085
				c0-4.465-3.62-8.085-8.085-8.085H94.309c-1.485,0-2.695-1.209-2.695-2.695v-21.559c0-1.485,1.209-2.695,2.695-2.695h75.456
				c4.465,0,8.085-3.62,8.085-8.085c0-4.465-3.62-8.085-8.085-8.085h-50.459l13.434-63.809c3.392-16.117,17.81-27.816,34.281-27.816
				h0.389c-0.937,10.165-0.124,20.66,2.669,31.081c6.149,22.945,20.864,42.123,41.435,54c20.572,11.877,44.538,15.032,67.482,8.884
				c22.945-6.149,42.123-20.864,54-41.435c9.315-16.132,13.264-34.353,11.571-52.53h0.412c16.471,0,30.889,11.699,34.281,27.816
				l13.435,63.809h-50.459c-4.465,0-8.085,3.62-8.085,8.085c0,4.465,3.62,8.085,8.085,8.085h75.456c1.485,0,2.695,1.209,2.695,2.695
				v21.559c0,1.485-1.209,2.695-2.695,2.695h-53.897c-4.465,0-8.085,3.62-8.085,8.085s3.62,8.085,8.085,8.085h53.897
				c10.401,0,18.864-8.463,18.864-18.864v-21.559C436.557,461.177,428.094,452.714,417.693,452.714z M167.5,122.058
				c-0.02,0.005-0.04,0.011-0.06,0.016l-11.256,3.016c-1.355,0.361-2.742-0.356-3.226-1.673l-19.097-51.921
				c-4.039-10.98-3.297-22.747,2.087-33.133c5.384-10.386,14.573-17.773,25.873-20.801c3.58-0.959,7.195-1.434,10.778-1.434
				c7.725,0,15.295,2.205,22.029,6.511c9.857,6.303,16.382,16.123,18.374,27.65l9.421,54.514c0.239,1.383-0.603,2.699-1.958,3.061
				l-52.905,14.176C167.54,122.047,167.521,122.053,167.5,122.058z M179.495,135.583l26.03-6.974l40.764,152.135
				c-4.432,0.489-8.888,1.319-13.326,2.508c-4.409,1.181-8.649,2.675-12.709,4.453L179.495,135.583z M318.994,405.534
				c-9.718,16.831-25.408,28.871-44.182,33.902c-18.773,5.031-38.379,2.449-55.213-7.269c-16.831-9.718-28.871-25.408-33.901-44.182
				c-10.384-38.753,12.696-78.73,51.449-89.113c38.754-10.386,78.73,12.696,89.114,51.449
				C331.294,369.094,328.712,388.702,318.994,405.534z"/>
			<path fill="white" d="M276.858,336.703c-3.15,3.165-3.137,8.284,0.029,11.433c5.634,5.606,8.738,13.069,8.738,21.017
				c0,16.346-13.298,29.644-29.644,29.644c-4.465,0-8.085,3.62-8.085,8.085s3.62,8.085,8.085,8.085
				c25.262,0,45.813-20.551,45.813-45.813c0-12.282-4.796-23.816-13.503-32.479C285.125,333.524,280.006,333.538,276.858,336.703z"
				/>
			<path fill="white" d="M226.338,369.152c0-16.346,13.298-29.644,29.644-29.644c4.465,0,8.085-3.62,8.085-8.085c0-4.465-3.62-8.085-8.085-8.085
				c-25.262,0-45.813,20.551-45.813,45.813c0,12.237,4.766,23.742,13.418,32.395c1.578,1.579,3.648,2.368,5.716,2.368
				c2.069,0,4.138-0.79,5.716-2.368c3.157-3.156,3.157-8.275,0-11.433C229.421,384.515,226.338,377.071,226.338,369.152z"/>
		</g>
	</g>
</g>
</svg>
