<?xml version="1.0" encoding="UTF-8" standalone="no"?>
<svg
   xmlns:dc="http://purl.org/dc/elements/1.1/"
   xmlns:cc="http://creativecommons.org/ns#"
   xmlns:rdf="http://www.w3.org/1999/02/22-rdf-syntax-ns#"
   xmlns:svg="http://www.w3.org/2000/svg"
   xmlns="http://www.w3.org/2000/svg"
   id="svg8"
   version="1.1"
   viewBox="0 0 8.4666665 8.4666669"
   height="32"
   width="32">
  <defs
     id="defs2" />
  <metadata
     id="metadata5">
    <rdf:RDF>
      <cc:Work
         rdf:about="">
        <dc:format>image/svg+xml</dc:format>
        <dc:type
           rdf:resource="http://purl.org/dc/dcmitype/StillImage" />
        <dc:title></dc:title>
      </cc:Work>
    </rdf:RDF>
  </metadata>
  <g
     transform="translate(0,-288.53332)"
     id="layer1">
    <path
       id="path815"
       d="m 6.1735664,291.97956 a 2.7227266,2.7227266 0 0 1 -2.7227331,2.72273 2.7227266,2.7227266 0 0 1 -2.72271785,-2.72273 2.7227266,2.7227266 0 0 1 2.72271785,-2.72272 2.7227266,2.7227266 0 0 1 2.7227331,2.72272 z"
       style="opacity:1;fill:none;fill-opacity:1;stroke:#ffffff;stroke-width:0.80131006;stroke-linecap:square;stroke-linejoin:miter;stroke-miterlimit:4;stroke-dasharray:none;stroke-opacity:1" />
    <path
       id="rect817"
       d="m 5.2214095,293.82043 c 0.1687478,-0.20202 0.4432849,-0.23028 0.6155639,-0.0634 l 2.2236201,2.15416 c 0.1722812,0.1669 0.1751196,0.46389 0.00638,0.6659 -0.1687488,0.20201 -0.443295,0.23027 -0.615573,0.0634 l -2.223611,-2.15416 c -0.1722812,-0.1669 -0.1751287,-0.46389 -0.00638,-0.66589 z"
       style="opacity:1;fill:#ffffff;fill-opacity:0.9948454;stroke:none;stroke-width:0.26624748;stroke-linecap:square;stroke-linejoin:miter;stroke-miterlimit:4;stroke-dasharray:none;stroke-opacity:1" />
    <g
       id="text824"
       style="font-style:normal;font-weight:normal;font-size:2.32528448px;line-height:1.25;font-family:sans-serif;letter-spacing:0px;word-spacing:0px;fill:#ffffff;fill-opacity:1;stroke:none;stroke-width:0.05813211"
       aria-label="+">
      <g
         transform="matrix(1.1696263,0,0,1.1696263,-0.58035078,-49.526608)"
         id="text3232"
         style="font-style:normal;font-weight:normal;font-size:10.58333302px;line-height:1.25;font-family:sans-serif;letter-spacing:0px;word-spacing:0px;fill:#ffffff;fill-opacity:1;stroke:none;stroke-width:0.01538079"
         aria-label="-">
        <path
           id="path3234"
           style="fill:#ffffff;fill-opacity:1;stroke-width:0.01538079"
           d="m 2.0286693,291.55108 h 2.7853596 v 0.84749 H 2.0286693 Z" />
      </g>
    </g>
  </g>
</svg>
