<?xml version="1.0" encoding="UTF-8" standalone="no"?>
<!-- Created with Inkscape (http://www.inkscape.org/) -->

<svg
   xmlns:dc="http://purl.org/dc/elements/1.1/"
   xmlns:cc="http://creativecommons.org/ns#"
   xmlns:rdf="http://www.w3.org/1999/02/22-rdf-syntax-ns#"
   xmlns:svg="http://www.w3.org/2000/svg"
   xmlns="http://www.w3.org/2000/svg"
   xmlns:sodipodi="http://sodipodi.sourceforge.net/DTD/sodipodi-0.dtd"
   xmlns:inkscape="http://www.inkscape.org/namespaces/inkscape"
   width="32"
   height="32"
   viewBox="0 0 8.4666665 8.4666669"
   version="1.1"
   id="svg8"
   inkscape:version="0.92.4 (5da689c313, 2019-01-14)"
   sodipodi:docname="zoomin.svg">
  <defs
     id="defs2" />
  <sodipodi:namedview
     id="base"
     pagecolor="#bebebe"
     bordercolor="#666666"
     borderopacity="1.0"
     inkscape:pageopacity="0"
     inkscape:pageshadow="2"
     inkscape:zoom="11.2"
     inkscape:cx="-7.4205106"
     inkscape:cy="26.898699"
     inkscape:document-units="mm"
     inkscape:current-layer="text824"
     showgrid="false"
     units="px"
     inkscape:showpageshadow="false"
     inkscape:window-width="1920"
     inkscape:window-height="1016"
     inkscape:window-x="0"
     inkscape:window-y="27"
     inkscape:window-maximized="1" />
  <metadata
     id="metadata5">
    <rdf:RDF>
      <cc:Work
         rdf:about="">
        <dc:format>image/svg+xml</dc:format>
        <dc:type
           rdf:resource="http://purl.org/dc/dcmitype/StillImage" />
        <dc:title />
      </cc:Work>
    </rdf:RDF>
  </metadata>
  <g
     inkscape:label="Layer 1"
     inkscape:groupmode="layer"
     id="layer1"
     transform="translate(0,-288.53332)">
    <path
       style="opacity:1;fill:none;fill-opacity:1;stroke:#ffffff;stroke-width:0.80131006;stroke-linecap:square;stroke-linejoin:miter;stroke-miterlimit:4;stroke-dasharray:none;stroke-opacity:1"
       d="m 6.1735664,291.97956 a 2.7227266,2.7227266 0 0 1 -2.7227331,2.72273 2.7227266,2.7227266 0 0 1 -2.72271785,-2.72273 2.7227266,2.7227266 0 0 1 2.72271785,-2.72272 2.7227266,2.7227266 0 0 1 2.7227331,2.72272 z"
       id="path815"
       inkscape:connector-curvature="0" />
    <path
       style="opacity:1;fill:#ffffff;fill-opacity:0.9948454;stroke:none;stroke-width:0.26624748;stroke-linecap:square;stroke-linejoin:miter;stroke-miterlimit:4;stroke-dasharray:none;stroke-opacity:1"
       d="m 5.2214095,293.82043 c 0.1687478,-0.20202 0.4432849,-0.23028 0.6155639,-0.0634 l 2.2236201,2.15416 c 0.1722812,0.1669 0.1751196,0.46389 0.00638,0.6659 -0.1687488,0.20201 -0.443295,0.23027 -0.615573,0.0634 l -2.223611,-2.15416 c -0.1722812,-0.1669 -0.1751287,-0.46389 -0.00638,-0.66589 z"
       id="rect817"
       inkscape:connector-curvature="0" />
    <g
       aria-label="+"
       style="font-style:normal;font-weight:normal;font-size:2.32528448px;line-height:1.25;font-family:sans-serif;letter-spacing:0px;word-spacing:0px;fill:#ffffff;fill-opacity:1;stroke:none;stroke-width:0.05813211"
       id="text824">
      <path
         d="m 3.6587645,290.38505 v 1.26922 h 1.2643736 c 0.2199015,0.26384 0.1052383,0.41617 0,0.57163 H 3.6587645 v 1.26922 c -0.1816329,0.12631 -0.372585,0.14079 -0.5764768,0 V 292.2259 H 1.8179141 c -0.1801831,-0.21457 -0.1534558,-0.40155 0,-0.57163 h 1.2643736 v -1.26922 c 0.1537722,-0.11516 0.3134636,-0.21256 0.5764768,0 z"
         style="font-style:normal;font-variant:normal;font-weight:bold;font-stretch:normal;font-size:4.96060753px;font-family:sans-serif;-inkscape-font-specification:'sans-serif Bold';fill:#ffffff;fill-opacity:1;stroke-width:0.05813211"
         id="path3227"
         inkscape:connector-curvature="0"
         sodipodi:nodetypes="ccccccccccccc" />
    </g>
  </g>
</svg>
